# xmcd
#
# Track frame offsets: 
#        150
#        10630
#        21445
#        30310
#        40707
#        52268
#        62861
#        73640
#        88412
#        100731
#        112066
#        123162
#        132250
#        142714
#        155793
#        167284
#        178091
#        189046
#        200768
#        212303
#        222826
#        234526
#        244136
#        255662
#        265161
#        274964
#        283519
#        291330
#        303118
#        315536
#        326539
#        335887
#
# Disc length: 4593 seconds
#
# Revision: 1
# Processed by: cddbd v1.5.2PL0 Copyright (c) Steve Scherf et al.
# Submitted via: ExactAudioCopyFreeDBPlugin 1.0
#
DISCID=d711ef20
DTITLE=Various Artist - The History of New Orleans Rhythm and Blues, 19
DTITLE=55-1962
DYEAR=2014
DGENRE=Rhythm and Blues
TTITLE0=Jessie Hill - Ooh Poo Pah Doo (Pt. 1)
TTITLE1=Big Boy Myles - New Orleans
TTITLE2=Lee Diamond and The Upsetters - It Won't Be Me
TTITLE3=Aaron Neville - Over You
TTITLE4=Roy Montrell - Mudd
TTITLE5=Eddie Bo - Tell It Like It Is
TTITLE6=Earl King - Darling Honey Angel Child
TTITLE7=Ford Eaglin - That Certain Door
TTITLE8=Shelton Dunaway and The Cupcakes - Mary Lou Doing the Popeye
TTITLE9=James Booker - Gonzo
TTITLE10=Tommy Ridgley - Double Eyed Whammy
TTITLE11=Fats Domino - Walking to New Orleans
TTITLE12=Willie West - A Man Like Me
TTITLE13=Jessie Hill - Scoop Scoobie Doobie
TTITLE14=Ernie K-Doe - Mother-In-Law
TTITLE15=Chris Kenner - Rocket to the Moon
TTITLE16=Robert Parker - Across the Tracks
TTITLE17=Benny Spellman - Ammerette
TTITLE18=Huey "Piano" Smith and His Clowns - Suzie Q
TTITLE19=Clarence "Frogman" Henry - But I Do
TTITLE20=Danny White - Somebody Please Help Me
TTITLE21=Alvin "Red" Tyler - The Peanut Vendor
TTITLE22=Eddie Bo - I Got to Know
TTITLE23=Fats Domino - My Girl Josephine
TTITLE24=Clarence "Frogman" Henry - Lonely Street
TTITLE25=Benny Spellman and Roland Stone - Roll On
TTITLE26=Al Tousan - Moo Moo
TTITLE27=Mac Rebennack - Good Times
TTITLE28=Ernie K-Doe - A Certain Girl
TTITLE29=Roland Stone - Down the Road
TTITLE30=Huey "Piano" Smith and His Band - Somewhere
TTITLE31=Chris Kenner - I Like It Like That (Pt. 1)
EXTD=
EXTT0=
EXTT1=
EXTT2=
EXTT3=
EXTT4=
EXTT5=
EXTT6=
EXTT7=
EXTT8=
EXTT9=
EXTT10=
EXTT11=
EXTT12=
EXTT13=
EXTT14=
EXTT15=
EXTT16=
EXTT17=
EXTT18=
EXTT19=
EXTT20=
EXTT21=
EXTT22=
EXTT23=
EXTT24=
EXTT25=
EXTT26=
EXTT27=
EXTT28=
EXTT29=
EXTT30=
EXTT31=
PLAYORDER=
